<svg id="Layer_1" data-name="Layer 1" xmlns="http://www.w3.org/2000/svg" viewBox="0 0 419.34 398.82"><defs><style>.cls-1{fill:#bf2126;stroke-width:9px;}.cls-1,.cls-3,.cls-4,.cls-5{stroke:#d8a528;stroke-miterlimit:10;}.cls-2{fill:#d8a528;}.cls-3{fill:#2f6b3d;}.cls-3,.cls-4,.cls-5{stroke-width:3px;}.cls-4{fill:#2f6c3d;}.cls-5{fill:#e9e9e9;}</style></defs><polygon class="cls-1" points="209.67 10.17 271.47 135.4 409.67 155.48 309.67 252.95 333.28 390.59 209.67 325.61 86.06 390.59 109.67 252.95 9.67 155.48 147.87 135.4 209.67 10.17"/><path class="cls-2" d="M196.94,343.57a10.3,10.3,0,0,1,.1,3.27,7.35,7.35,0,0,1-1,2.91A7.42,7.42,0,0,1,193.8,352a9.14,9.14,0,0,1-3.48,1.33l1,4.38a5.87,5.87,0,0,0,.42,1.14,3.12,3.12,0,0,0,1.18,1.23q-3.31.71-6.61,1.5a3.63,3.63,0,0,0,.5-1.55,4.59,4.59,0,0,0-.11-1.27l-4.44-18.83a4.1,4.1,0,0,0-.57-1.35,3.08,3.08,0,0,0-1.15-1q2.55-.61,5.1-1.18a22.67,22.67,0,0,1,4.42-.58,6.47,6.47,0,0,1,3.26.75,5.88,5.88,0,0,1,2.25,2.46A16.4,16.4,0,0,1,196.94,343.57ZM189.82,351a3.13,3.13,0,0,0,1.69-1,3.67,3.67,0,0,0,.7-1.73,9.14,9.14,0,0,0,0-2.22c-.09-.81-.23-1.65-.4-2.52a10.27,10.27,0,0,0-.62-2,5.24,5.24,0,0,0-1-1.55,3.36,3.36,0,0,0-1.33-.92,2.89,2.89,0,0,0-1.71-.09Q188.5,345,189.82,351Z" transform="translate(-40.33 -49.62)"/><path class="cls-2" d="M208.57,357.22a1.91,1.91,0,0,0,.64-1.3,3.56,3.56,0,0,0-.18-1.46c-.45-1.39-.91-2.79-1.37-4.19l-4.14.66q0,2.31,0,4.62a2.6,2.6,0,0,0,.27,1.3,2.58,2.58,0,0,0,.85,1c-1.82.3-3.63.63-5.45,1a3.48,3.48,0,0,0,.58-1.32,6.38,6.38,0,0,0,.19-1.35q0-9.9.24-19.83a6,6,0,0,0-.18-1.4,2.42,2.42,0,0,0-.68-1.21q4.23-.73,8.47-1.33a2.48,2.48,0,0,0-.24,1.3,5.2,5.2,0,0,0,.22,1.45q3.22,9.27,6.21,18.6a8.29,8.29,0,0,0,.69,1.44,3,3,0,0,0,1.06,1.05Q212.15,356.67,208.57,357.22Zm-1.76-9.64q-1.62-5.22-3.32-10.42c0,3.65,0,7.3,0,10.95C204.61,347.92,205.71,347.75,206.81,347.58Z" transform="translate(-40.33 -49.62)"/><path class="cls-2" d="M229.11,337.36a11.55,11.55,0,0,1-.07,2.51,7.81,7.81,0,0,1-.62,2.17,6.43,6.43,0,0,1-1.17,1.76,5,5,0,0,1-1.73,1.2,3.45,3.45,0,0,1,1.78.88,5.41,5.41,0,0,1,1.14,1.63,13.32,13.32,0,0,1,.74,2.16c.2.8.39,1.62.56,2.47a4.4,4.4,0,0,0,1.46,2.59q-2.7.18-5.4.42a7.44,7.44,0,0,1-.79-2.27c-.17-.91-.38-1.8-.62-2.69a9.44,9.44,0,0,0-1-2.37,2.84,2.84,0,0,0-1.9-1.32q.31,3.17.64,6.33a3.55,3.55,0,0,0,.39,1.36,4.5,4.5,0,0,0,1,1.17q-3.36.33-6.71.73a4.06,4.06,0,0,0,.67-1.31,4.17,4.17,0,0,0,0-1.44l-2.25-19.08a4.06,4.06,0,0,0-1.44-2.67c1.34-.16,2.68-.32,4-.46a23.13,23.13,0,0,1,5.19-.41,7.59,7.59,0,0,1,3.42.89,4.6,4.6,0,0,1,1.94,2.19A11,11,0,0,1,229.11,337.36Zm-7.85,6.84a3.89,3.89,0,0,0,1.64-.91,4.21,4.21,0,0,0,.95-1.38,5.8,5.8,0,0,0,.41-1.7,10.06,10.06,0,0,0,0-1.82,12.92,12.92,0,0,0-.25-1.62,5.53,5.53,0,0,0-.65-1.68,3.57,3.57,0,0,0-1.2-1.24,3,3,0,0,0-2-.3Z" transform="translate(-40.33 -49.62)"/><path class="cls-2" d="M241.52,351.58a4.68,4.68,0,0,0,.23,1.25,3.37,3.37,0,0,0,.91,1.37c-2.25.06-4.49.14-6.74.25a3.2,3.2,0,0,0,.77-1.41,4.63,4.63,0,0,0,.13-1.29q-.44-9.58-.88-19.18a7.5,7.5,0,0,0-1.08.3,5.11,5.11,0,0,0-1.2.66,6.51,6.51,0,0,0-1.21,1.16,8.43,8.43,0,0,0-1.12,1.8c-.14-2.16-.27-4.32-.41-6.48q7.43-.47,14.86-.55c0,2.16.05,4.32.08,6.49a8.8,8.8,0,0,0-1.25-1.72,7.35,7.35,0,0,0-1.29-1.06,5.3,5.3,0,0,0-1.25-.57,6.88,6.88,0,0,0-1.1-.22Q241.24,342,241.52,351.58Z" transform="translate(-40.33 -49.62)"/><path class="cls-2" d="M248,354.12a3.4,3.4,0,0,0,.85-1.43,4.69,4.69,0,0,0,.2-1.22q0-9.68,0-19.35a3.52,3.52,0,0,0-1.16-2.68q3.74,0,7.47.05a3.7,3.7,0,0,0-1.17,2.67l-.31,19.34a4.7,4.7,0,0,0,.17,1.28,3.3,3.3,0,0,0,.81,1.39Q251.39,354.11,248,354.12Z" transform="translate(-40.33 -49.62)"/><path class="cls-2" d="M266.56,345.53a3.72,3.72,0,0,0-1-.72,3,3,0,0,0-1.2-.39c-1.56-.09-3.13-.16-4.69-.21a3,3,0,0,0-1.23.28,3.75,3.75,0,0,0-1.1.63c.05-1.75.1-3.49.14-5.24a2.84,2.84,0,0,0,1.09.61,4.29,4.29,0,0,0,1.23.29q2.37.08,4.74.21a4.19,4.19,0,0,0,1.25-.17,2.91,2.91,0,0,0,1.13-.51C266.78,342.05,266.67,343.79,266.56,345.53Z" transform="translate(-40.33 -49.62)"/><path class="cls-2" d="M282,331.24q-5.31,10.47-10,21.1a6.87,6.87,0,0,0,2.56-.09,5.3,5.3,0,0,0,1.92-.89,6.05,6.05,0,0,0,1.45-1.53c.42-.6.83-1.26,1.24-2l-.84,7.81q-6.24-.68-12.5-1.05l2.17-4.87c.73-1.63,1.49-3.32,2.3-5.07s1.67-3.57,2.59-5.47,1.91-3.93,3-6.06a15,15,0,0,0-1.77,0,9.29,9.29,0,0,0-1.85.31,8.59,8.59,0,0,0-1.91.77,9,9,0,0,0-1.92,1.42c.12-1.87.24-3.73.37-5.6Q275.4,330.51,282,331.24Z" transform="translate(-40.33 -49.62)"/><path class="cls-2" d="M289.05,357a2,2,0,0,0,1-1.05,3.48,3.48,0,0,0,.25-1.44c0-1.47-.05-2.94-.08-4.42-1.38-.2-2.76-.4-4.15-.58L284.71,354a2.7,2.7,0,0,0,.39,2.52c-1.82-.25-3.65-.47-5.48-.68a3.41,3.41,0,0,0,.94-1.09,6.55,6.55,0,0,0,.58-1.23Q284,344,287.2,334.61a5.39,5.39,0,0,0,.23-1.39,2.36,2.36,0,0,0-.29-1.36c2.83.36,5.67.77,8.49,1.22a2.48,2.48,0,0,0-.62,1.18,4.87,4.87,0,0,0-.21,1.44q.36,9.81.46,19.61a8.38,8.38,0,0,0,.24,1.58,3,3,0,0,0,.7,1.31C293.82,357.78,291.43,357.4,289.05,357Zm1.15-9.73q0-5.46-.11-10.94-1.63,5.24-3.2,10.48Z" transform="translate(-40.33 -49.62)"/><path class="cls-2" d="M318.27,337.59a3.69,3.69,0,0,0-1.31,1.06,3.58,3.58,0,0,0-.55,1.26l-4.11,17.44c-.15.66-.28,1.34-.39,2a7.38,7.38,0,0,0,0,2c-1.54-.37-3.09-.72-4.63-1.06-.32-2.65-.65-5.28-1-7.9s-.74-5.27-1.14-7.94q-1.21,6.07-2.42,12.14a3.57,3.57,0,0,0,0,1.53,4.36,4.36,0,0,0,.63,1.34c-2-.42-4.05-.8-6.08-1.17a3.37,3.37,0,0,0,1.15-1.14,4.39,4.39,0,0,0,.44-1.26q1.76-9.53,3.5-19a3.57,3.57,0,0,0,0-1.6,3.1,3.1,0,0,0-.69-1.26c2.22.39,4.43.82,6.64,1.27q.84,5,1.56,10c.14,1.48.27,3,.4,4.44q1.19-5.37,2.38-10.75a3.16,3.16,0,0,0,0-1.53,4.51,4.51,0,0,0-.64-1.36Q315.11,336.83,318.27,337.59Z" transform="translate(-40.33 -49.62)"/><g id="layer1"><path id="path3009" class="cls-3" d="M225.92,319.69c4.55,2.07,26-7.16,26.18-10.35,1.07-1.87-1-5.93-1-5.93l-21.56-54.53c-3-6.78-10.7-8.26-12.67-12.5l-13.62-27.7c2-2.1-1.37-5.06-2.3-6.13.61-2.79-1.1-2.34-1.59-2.54a57.6,57.6,0,0,0-11.44,4.7s-1.25,2.28,1,2.63c.73.58-1.26,6.08,2.56,6.14l9.43,29.7c1.33,5.14-2.69,9.84-.64,16.36l23.48,56.94s1.08,2.67,2.12,3.21Z" transform="translate(-40.33 -49.62)"/></g><g id="layer1-2" data-name="layer1"><path id="path3009-2" data-name="path3009" class="cls-4" d="M247.67,309c1.84,4.66,23.67,12.9,26,10.74,2.06-.6,3.4-4.95,3.4-4.95l22.37-54.2c2.56-7-2-13.38-.42-17.79l9.44-29.39c2.93-.1,2.53-4.6,2.6-6,2.38-1.6.84-2.46.62-2.94a57.48,57.48,0,0,0-11.49-4.57s-2.48.77-1.08,2.62c.12.92-5.13,3.5-2.42,6.19l-13.85,27.92c-2.61,4.62-8.77,5.2-11.82,11.32l-22.67,57.27s-1.08,2.67-.7,3.78Z" transform="translate(-40.33 -49.62)"/></g><g id="layer1-3" data-name="layer1"><path id="path3009-3" data-name="path3009" class="cls-5" d="M235.66,309.33c3.44,3.63,26.77,3.1,28.15.21,1.69-1.33,1.3-5.86,1.3-5.86l.43-58.64c-.23-7.41-6.82-11.67-7.05-16.34l-2.26-30.78c2.68-1.19.63-5.21.17-6.54,1.61-2.37-.14-2.59-.53-3a57.51,57.51,0,0,0-12.36.07s-2,1.64,0,2.83c.46.81-3.44,5.17.08,6.65l-2.38,31.08c-.69,5.25-6.19,8.11-6.72,14.92l.44,61.59s0,2.88.76,3.77Z" transform="translate(-40.33 -49.62)"/></g></svg>